<svg xmlns:dc="http://purl.org/dc/elements/1.1/" xmlns:cc="http://creativecommons.org/ns#"
        xmlns:rdf="http://www.w3.org/1999/02/22-rdf-syntax-ns#" xmlns:svg="http://www.w3.org/2000/svg"
        xmlns="http://www.w3.org/2000/svg" xmlns:sodipodi="http://sodipodi.sourceforge.net/DTD/sodipodi-0.dtd"
        xmlns:inkscape="http://www.inkscape.org/namespaces/inkscape" version="1.1" id="svg2" xml:space="preserve"
        width="30" height="30" viewBox="0 0 2500 1876" sodipodi:docname="sass-1-logo.eps">
        <defs id="defs6" />
        <g id="g10" inkscape:groupmode="layer" inkscape:label="ink_ext_XXXXXX"
          transform="matrix(1.3333333,0,0,-1.3333333,0,1876)">
          <g id="g12" transform="scale(0.1)">
            <path
              d="m 16139.5,5993.5 c -655.5,-3.71 -1223.2,-161.13 -1699.2,-395.55 -175.8,347.89 -351.6,651.92 -380.9,878.91 -32.9,263.67 -73.2,424.84 -32.9,739.76 40.2,314.96 223.3,761.76 223.3,798.36 -3.7,32.97 -40.3,194.1 -417.5,197.78 -377.1,3.63 -703.1,-73.25 -739.7,-172.15 -36.6,-98.87 -109.9,-325.9 -157.4,-560.28 -66,-344.25 -754.5,-1563.75 -1146.3,-2204.6 -128.2,249.02 -238,468.75 -260,644.57 -33,263.63 -73.3,424.8 -33,739.72 40.3,314.96 223.4,761.72 223.4,798.32 -3.6,32.97 -40.3,194.1 -417.4,197.78 -377.3,3.63 -703.1,-73.25 -739.8,-172.15 -36.6,-98.87 -76.9,-333.24 -157.5,-560.28 -76.9,-227.07 -992.41,-2263.2 -1230.46,-2794.21 -120.82,-270.98 -226.99,-487.04 -303.94,-633.52 -76.92,-146.48 -3.68,-11.02 -10.98,-25.66 -65.94,-124.5 -102.54,-194.07 -102.54,-194.07 v -3.71 c -51.29,-91.56 -106.21,-179.41 -131.88,-179.41 -18.32,0 -54.92,245.35 7.31,582.22 135.51,706.84 465.12,1809.11 461.48,1849.38 0,18.32 62.23,212.46 -212.46,311.29 -267.3,98.87 -362.5,-65.94 -384.49,-65.94 -21.99,0 -40.31,-58.59 -40.31,-58.59 0,0 296.64,1241.44 -567.62,1241.44 -541.99,0 -1289.06,-589.61 -1658.94,-1127.93 C 5995.39,5696.78 5497.34,5425.84 4970,5136.51 4768.59,5026.62 4559.84,4909.44 4362.11,4803.23 l -40.23,44.02 C 3274.49,5964.2 1337.23,6755.22 1417.81,8256.7 c 29.3,545.63 219.73,1984.9 3720.74,3728 2867.43,1428.2 5163.55,1036.4 5562.75,164.8 567.6,-1245.1 -1226.85,-3559.56 -4207.78,-3892.8 -1135.24,-128.2 -1732.19,311.25 -1882.31,476.06 -157.46,172.11 -179.45,179.45 -238.05,146.48 -95.19,-51.25 -36.6,-205.08 0,-296.64 87.89,-230.7 454.11,-640.86 1076.68,-845.94 545.59,-179.45 1878.64,-278.32 3489.96,344.26 1805.4,699.45 3215.4,2640.38 2801.5,4262.68 C 11320.2,13995.2 8580.94,14537.2 5991.84,13618 4450.04,13068.7 2780.12,12211.8 1578.95,11087.5 150.699,9754.48 -76.3281,8589.94 18.8711,8106.55 352.191,6381.7 2728.83,5257.4 3680.98,4426.12 3633.4,4400.53 3589.45,4374.9 3549.14,4352.87 3073.09,4118.54 1260.35,3170.02 806.25,2166.62 293.551,1031.39 886.801,214.711 1282.3,104.828 2505.47,-235.762 3757.89,375.84 4435.39,1382.91 c 673.79,1007.07 593.24,2314.46 281.99,2911.37 l -11.05,21.99 373.55,219.73 c 241.72,142.81 479.77,274.65 688.48,388.2 -117.15,-318.59 -201.41,-695.78 -245.31,-1245.12 -51.29,-644.57 212.38,-1479.49 560.27,-1809.06 153.83,-142.81 336.91,-146.48 450.47,-146.48 402.81,0 585.94,333.28 787.34,732.42 249.03,487.03 468.75,1051.02 468.75,1051.02 0,0 -274.65,-1527.11 476.06,-1527.11 274.68,0 549.33,355.23 673.83,538.32 v -3.64 c 0,0 7.34,10.98 21.99,36.6 15.35,22.74 30,45.9 43.94,69.54 v 7.34 c 109.85,190.43 355.24,626.21 721.45,1347.66 472.35,930.15 926.45,2094.72 926.45,2094.72 0,0 44,-285.66 179.5,-754.41 80.5,-278.36 256.3,-582.27 391.8,-878.91 -109.9,-153.79 -175.8,-241.72 -175.8,-241.72 l 3.7,-3.67 c -87.9,-117.19 -186.8,-241.72 -289.3,-366.21 -373.5,-446.76 -820.3,-955.86 -878.89,-1102.34 -69.57,-172.07 -54.92,-300.24 80.55,-402.82 98.94,-73.24 274.64,-87.85 461.44,-73.24 336.9,21.99 571.3,106.21 688.5,157.5 183.1,65.94 391.8,164.81 593.2,311.29 366.2,270.94 589.6,655.47 567.7,1168.17 -11,281.99 -102.6,560.31 -216.1,823.98 33,47.62 66,95.23 98.9,146.48 578.6,845.98 1025.4,1776.14 1025.4,1776.14 0,0 43.9,-285.67 179.4,-754.42 69.6,-238.04 208.7,-498.08 333.3,-754.41 -542,-443.13 -882.6,-955.82 -999.8,-1292.74 -216,-622.53 -47.6,-904.53 271,-970.46 142.8,-29.3 347.9,36.64 501.7,102.53 190.4,62.27 421.1,168.52 633.6,325.94 366.2,271.02 717.7,648.21 699.4,1157.23 -11,234.37 -73.2,465.08 -157.4,684.8 461.4,190.43 1058.3,300.32 1816.4,208.75 1629.6,-190.43 1951.9,-1208.47 1889.6,-1633.28 -62.2,-424.84 -402.8,-659.18 -516.4,-732.42 -113.5,-69.61 -150.1,-95.27 -139.1,-146.48 14.7,-76.96 65.9,-73.25 164.8,-58.64 135.5,22 856.9,347.89 886.2,1131.53 44,1007.22 -911.9,2105.86 -2607.4,2094.92 z M 3571.13,1756.43 c -538.32,-589.57 -1296.4,-812.969 -1618.67,-622.54 -347.89,201.41 -212.42,1069.34 450.47,1695.55 402.81,380.86 926.48,732.42 1270.74,948.47 76.92,47.62 194.1,117.15 333.24,201.45 22,14.61 36.64,21.95 36.64,21.95 25.63,14.65 54.93,32.97 84.22,51.29 245.35,-893.55 10.98,-1677.27 -556.64,-2296.17 z m 3936.76,2677.03 c -186.76,-457.77 -582.27,-1633.32 -820.31,-1567.38 -205.12,54.92 -329.57,944.8 -40.31,1823.71 146.48,443.16 457.77,970.47 640.85,1175.58 296.68,329.57 618.91,439.46 699.5,303.95 95.23,-175.82 -362.54,-1450.24 -479.73,-1735.86 z M 10756.2,2880.73 c -80.6,-40.36 -153.8,-69.61 -186.8,-47.66 -25.6,14.65 32.9,69.57 32.9,69.57 0,0 406.5,435.78 567.7,637.23 91.5,117.14 201.4,252.61 318.6,406.48 v -43.95 c 0,-527.3 -505.4,-878.86 -732.4,-1021.67 z m 2504.8,571.28 c -58.6,43.95 -51.2,179.42 146.5,604.22 76.9,168.48 252.7,450.47 556.6,717.78 36.7,-109.85 58.7,-216.02 55,-314.93 -3.6,-659.18 -472.4,-904.53 -758.1,-1007.07 z"
              style="fill:#cf649a;fill-opacity:1;fill-rule:nonzero;stroke:none" id="path14" />
          </g>
        </g>
      </svg>